<svg xmlns="http://www.w3.org/2000/svg" viewBox="0 0 512 512">
  <rect width="512" height="512" rx="96" fill="#0f172a"/>
  <rect x="64" y="88" width="384" height="336" rx="24" fill="#1e293b" stroke="#38bdf8" stroke-width="12"/>
  <rect x="64" y="88" width="384" height="72" rx="24" fill="#0ea5e9"/>
  <text x="256" y="142" text-anchor="middle" font-family="Segoe UI,Arial,sans-serif" font-size="40" font-weight="700" fill="#04263a">TURNI</text>
  <g fill="#38bdf8">
    <rect x="96" y="192" width="72" height="56" rx="8"/>
    <rect x="184" y="192" width="72" height="56" rx="8"/>
    <rect x="272" y="192" width="72" height="56" rx="8"/>
    <rect x="360" y="192" width="56" height="56" rx="8" fill="#6366f1"/>
    <rect x="96" y="264" width="72" height="56" rx="8" fill="#14b8a6"/>
    <rect x="184" y="264" width="72" height="56" rx="8"/>
    <rect x="272" y="264" width="72" height="56" rx="8" fill="#f59e0b"/>
    <rect x="360" y="264" width="56" height="56" rx="8"/>
    <rect x="96" y="336" width="72" height="56" rx="8"/>
    <rect x="184" y="336" width="72" height="56" rx="8" fill="#22c55e"/>
    <rect x="272" y="336" width="72" height="56" rx="8"/>
    <rect x="360" y="336" width="56" height="56" rx="8" fill="#475569"/>
  </g>
</svg>
